<svg xmlns="http://www.w3.org/2000/svg" width="960" height="320" viewBox="0 0 960 320" fill="none">
  <rect x="10" y="10" width="940" height="300" rx="34" fill="#F8FAFC" stroke="#1E293B" stroke-width="10"/>
  <path d="M10 44C10 25.2223 25.2223 10 44 10H336V310H44C25.2223 310 10 294.778 10 276V44Z" fill="#172033"/>
  <circle cx="196" cy="78" r="48" fill="#4ADE80"/>
  <path d="M188.565 103V93.615C182.855 92.9917 178.187 90.87 174.56 87.25L179.685 80.63C183.222 83.7567 186.808 85.52 190.445 85.92V72.87C185.485 71.6733 181.855 70.0533 179.555 68.01C177.255 65.9667 176.105 62.95 176.105 58.96C176.105 54.9467 177.512 51.72 180.325 49.28C183.145 46.84 186.515 45.51 190.435 45.29V38H197.855V45.57C202.395 46.09 206.43 47.73 209.96 50.49L205.46 57.53C202.77 55.53 200.235 54.27 197.855 53.75V66.39H198.08C203.18 67.61 206.917 69.27 209.29 71.37C211.67 73.47 212.86 76.5467 212.86 80.6C212.86 84.6533 211.435 87.89 208.585 90.31C205.745 92.73 202.17 94.0267 197.86 94.2V103H188.565ZM191.05 54.62C189.57 54.73 188.33 55.19 187.33 56C186.337 56.81 185.84 57.8933 185.84 59.25C185.84 60.6067 186.272 61.6633 187.135 62.42C187.995 63.1767 189.3 63.8533 191.05 64.45V54.62ZM197.86 85.2C199.38 85.1267 200.647 84.6767 201.66 83.85C202.67 83.0233 203.175 81.91 203.175 80.51C203.175 79.11 202.697 78.0167 201.74 77.23C200.79 76.4467 199.495 75.7533 197.855 75.15V85.2H197.86Z" fill="white"/>
  <path d="M98 116C98 105.507 106.507 97 117 97H205C215.493 97 224 105.507 224 116V228C224 238.493 215.493 247 205 247H117C106.507 247 98 238.493 98 228V116Z" fill="#FFFDF7"/>
  <path d="M133 132H173" stroke="#1E293B" stroke-width="11" stroke-linecap="round"/>
  <path d="M133 157H187" stroke="#1E293B" stroke-width="11" stroke-linecap="round"/>
  <path d="M133 182H177" stroke="#1E293B" stroke-width="11" stroke-linecap="round"/>
  <path d="M118 247L134 229L150 247L166 229L182 247" stroke="#1E293B" stroke-width="10" stroke-linecap="round" stroke-linejoin="round"/>
  <path d="M210 128C210 117.507 218.507 109 229 109H304C314.493 109 323 117.507 323 128V234C323 244.493 314.493 253 304 253H229C218.507 253 210 244.493 210 234V128Z" fill="#3B82F6"/>
  <path d="M229 149H293" stroke="#172033" stroke-opacity=".55" stroke-width="8" stroke-dasharray="14 10" stroke-linecap="round"/>
  <path d="M229 218H293" stroke="#172033" stroke-opacity=".55" stroke-width="8" stroke-dasharray="14 10" stroke-linecap="round"/>
  <path d="M229 149V218" stroke="#172033" stroke-opacity=".55" stroke-width="8" stroke-dasharray="14 10" stroke-linecap="round"/>
  <path d="M293 149V218" stroke="#172033" stroke-opacity=".55" stroke-width="8" stroke-dasharray="14 10" stroke-linecap="round"/>
  <rect x="252" y="166" width="48" height="36" rx="18" fill="#DBEAFE" stroke="#172033" stroke-width="8"/>
  <circle cx="276" cy="184" r="8" fill="#172033"/>
  <path d="M227 78L286 40" stroke="white" stroke-width="12" stroke-linecap="round"/>
  <path d="M287 39L281 74" stroke="white" stroke-width="12" stroke-linecap="round"/>
  <path d="M287 39L251 45" stroke="white" stroke-width="12" stroke-linecap="round"/>
  <line x1="336" y1="10" x2="336" y2="310" stroke="#1E293B" stroke-width="10"/>
  <text x="392" y="112" fill="#172033" font-family="Arial, Helvetica, sans-serif" font-size="78" font-weight="700">EXPENSE</text>
  <text x="392" y="194" fill="#172033" font-family="Arial, Helvetica, sans-serif" font-size="78" font-weight="700">TRACKER</text>
  <text x="392" y="260" fill="#172033" font-family="Arial, Helvetica, sans-serif" font-size="38" font-weight="600" letter-spacing="2">TRACK • MANAGE • SAVE</text>
</svg>
